<?xml version="1.0" standalone="no"?>
<!DOCTYPE svg PUBLIC "-//W3C//DTD SVG 20010904//EN"
 "http://www.w3.org/TR/2001/REC-SVG-20010904/DTD/svg10.dtd">
<svg version="1.0" xmlns="http://www.w3.org/2000/svg"
 width="320.000000pt" height="320.000000pt" viewBox="0 0 320.000000 320.000000"
 preserveAspectRatio="xMidYMid meet">

<g transform="translate(0.000000,320.000000) scale(0.100000,-0.100000)"
fill="#000000" stroke="none">
<path d="M410 2062 c-97 -98 -18 -279 103 -233 81 31 91 192 15 245 -36 26
-85 20 -118 -12z"/>
<path d="M711 2064 c-63 -52 -65 -152 -6 -211 52 -52 126 -38 159 31 59 125
-56 262 -153 180z"/>
<path d="M1057 1501 c-9 -16 -34 -44 -56 -63 l-39 -36 25 -26 c42 -45 70 -59
107 -52 71 13 92 86 43 150 -42 54 -60 60 -80 27z"/>
<path d="M1456 1331 c-19 -20 -30 -43 -33 -74 -5 -44 9 -87 28 -87 6 0 3 7 -5
16 -33 33 -12 125 36 158 12 9 18 16 12 16 -6 0 -23 -13 -38 -29z"/>
<path d="M1846 1299 c-4 -23 -5 -44 -2 -46 2 -2 7 14 11 37 4 23 5 43 2 46 -2
3 -7 -14 -11 -37z"/>
<path d="M2102 1310 c0 -14 2 -19 5 -12 2 6 2 18 0 25 -3 6 -5 1 -5 -13z"/>
<path d="M2956 1313 c-3 -10 -7 -36 -10 -58 -6 -38 -5 -38 5 -10 13 38 22 85
15 85 -2 0 -7 -8 -10 -17z"/>
<path d="M1600 1286 c0 -2 7 -7 16 -10 8 -3 12 -2 9 4 -6 10 -25 14 -25 6z"/>
<path d="M1709 1273 c-13 -16 -12 -17 3 -5 9 8 23 10 29 6 8 -4 9 -3 5 4 -10
17 -21 15 -37 -5z"/>
<path d="M2035 1280 c-4 -6 -11 -8 -16 -4 -5 3 -9 2 -7 -3 1 -4 -4 -28 -11
-52 -7 -23 -10 -45 -7 -48 2 -3 8 11 11 31 4 19 18 47 31 61 12 14 19 25 14
25 -5 0 -12 -5 -15 -10z"/>
<path d="M2581 1268 c-1 -31 14 -46 23 -22 3 8 2 12 -3 9 -5 -3 -12 5 -14 17
-4 20 -4 20 -6 -4z"/>
<path d="M1778 1273 c7 -3 16 -2 19 1 4 3 -2 6 -13 5 -11 0 -14 -3 -6 -6z"/>
<path d="M1910 1265 c-7 -9 -11 -17 -9 -20 3 -2 10 5 17 15 14 24 10 26 -8 5z"/>
<path d="M2085 1246 c-9 -44 -4 -68 15 -73 13 -4 13 -3 1 5 -10 7 -12 22 -8
56 8 53 1 62 -8 12z"/>
<path d="M2204 1234 c-3 -25 -3 -49 2 -54 5 -5 10 15 11 46 0 30 0 54 -2 54
-2 0 -7 -21 -11 -46z"/>
<path d="M2277 1273 c-11 -10 -8 -33 4 -33 5 0 7 5 3 11 -3 6 0 15 7 20 8 5 9
9 3 9 -6 0 -14 -3 -17 -7z"/>
<path d="M2425 1269 c-4 -6 -5 -12 -2 -15 2 -3 7 2 10 11 7 17 1 20 -8 4z"/>
<path d="M2686 1265 c4 -8 8 -15 10 -15 2 0 4 7 4 15 0 8 -4 15 -10 15 -5 0
-7 -7 -4 -15z"/>
<path d="M2746 1265 c-3 -9 -6 -24 -5 -33 0 -9 5 -4 10 12 9 32 6 48 -5 21z"/>
<path d="M2796 1248 c-3 -18 -6 -37 -5 -42 2 -24 -48 -34 -53 -11 -2 13 -5 13
-14 -3 -11 -16 -7 -18 41 -17 30 0 57 3 60 7 4 4 15 2 25 -4 42 -27 76 21 39
55 l-23 22 18 -22 c10 -12 16 -29 13 -38 -7 -17 -38 -20 -54 -4 -8 8 -13 8
-17 0 -4 -6 -12 -11 -18 -11 -7 0 -8 17 -4 50 7 56 2 68 -8 18z"/>
<path d="M2640 1265 c-4 -19 -8 -76 -5 -73 11 13 34 69 27 64 -6 -3 -13 0 -15
6 -3 7 -6 9 -7 3z"/>
<path d="M1734 1244 c3 -8 1 -16 -4 -19 -6 -4 -10 -14 -10 -23 0 -11 7 -5 20
16 24 39 24 39 5 39 -9 0 -14 -6 -11 -13z"/>
<path d="M1630 1232 c0 -10 -7 -29 -16 -42 l-16 -25 21 24 c19 21 29 61 16 61
-3 0 -5 -8 -5 -18z"/>
<path d="M1683 1243 c-15 -5 -17 -23 -4 -23 5 0 11 7 15 15 3 8 4 15 3 14 -1
0 -8 -3 -14 -6z"/>
<path d="M1776 1234 c-8 -22 -8 -64 2 -64 4 0 7 18 7 40 1 44 0 47 -9 24z"/>
<path d="M1961 1235 c0 -11 -8 -31 -17 -43 -8 -12 -11 -22 -6 -22 14 0 34 46
29 66 -4 17 -5 17 -6 -1z"/>
<path d="M1560 1216 c0 -14 4 -27 8 -30 5 -3 6 8 4 25 -5 35 -12 38 -12 5z"/>
<path d="M1831 1226 c0 -11 -8 -28 -18 -38 -9 -10 -11 -18 -5 -18 5 0 8 -10 6
-22 -4 -21 -4 -21 5 -3 4 11 6 24 4 28 -3 4 1 14 7 22 6 8 10 22 7 32 -4 16
-5 16 -6 -1z"/>
<path d="M2411 1224 c0 -11 3 -14 6 -6 3 7 2 16 -1 19 -3 4 -6 -2 -5 -13z"/>
<path d="M2677 1213 c-3 -16 -2 -31 1 -35 4 -4 8 9 9 28 3 41 -3 45 -10 7z"/>
<path d="M1881 1208 c-7 -13 -10 -20 -6 -16 5 4 14 3 20 -2 9 -8 11 -4 7 15
-2 14 -5 25 -6 25 -1 0 -7 -10 -15 -22z"/>
<path d="M2570 1206 c0 -31 6 -34 13 -6 3 11 1 23 -4 26 -5 3 -9 -6 -9 -20z"/>
<path d="M2461 1208 c-1 -10 -5 -18 -11 -18 -5 0 -10 -5 -10 -12 0 -8 6 -7 16
4 9 9 14 22 11 30 -4 9 -6 7 -6 -4z"/>
<path d="M1515 1190 c-10 -11 -14 -20 -9 -20 5 0 15 9 22 20 7 11 11 20 9 20
-2 0 -12 -9 -22 -20z"/>
<path d="M1667 1203 c-4 -3 -7 -11 -7 -17 0 -6 5 -5 12 2 6 6 9 14 7 17 -3 3
-9 2 -12 -2z"/>
<path d="M2314 1195 c-7 -17 -51 -20 -56 -4 -3 8 -7 7 -15 -2 -9 -11 -4 -15
27 -17 31 -2 41 2 50 18 6 11 8 20 5 20 -3 0 -8 -7 -11 -15z"/>
<path d="M2411 1184 c0 -11 3 -14 6 -6 3 7 2 16 -1 19 -3 4 -6 -2 -5 -13z"/>
<path d="M2984 1189 c-3 -6 -15 -9 -25 -6 -11 3 -17 1 -13 -4 8 -14 30 -11 44
6 7 8 10 15 7 15 -3 0 -9 -5 -13 -11z"/>
<path d="M1852 1150 c0 -14 2 -19 5 -12 2 6 2 18 0 25 -3 6 -5 1 -5 -13z"/>
<path d="M1805 1111 c-3 -5 -2 -12 3 -15 5 -3 9 1 9 9 0 17 -3 19 -12 6z"/>
<path d="M1836 1103 c-6 -14 -5 -15 5 -6 7 7 10 15 7 18 -3 3 -9 -2 -12 -12z"/>
</g>
</svg>
